<?xml version="1.0" encoding="utf-8"?>
<!-- Generator: Adobe Illustrator 23.0.2, SVG Export Plug-In . SVG Version: 6.00 Build 0)  -->
<svg version="1.1" id="Camada_1" xmlns="http://www.w3.org/2000/svg" xmlns:xlink="http://www.w3.org/1999/xlink" x="0px" y="0px"
	 width="192px" height="192px" viewBox="0 0 192 192" style="enable-background:new 0 0 192 192;" xml:space="preserve">
<style type="text/css">
	.st0{fill:#363636;}
	.st1{fill:#343A3C;}
	.st2{fill:#393835;}
	.st3{fill:#393639;}
	.st4{fill:#2299C6;}
	.st5{fill:#FDED14;}
	.st6{fill:#F2E834;}
	.st7{fill:#4D4111;}
	.st8{fill:#EB2393;}
	.st9{fill:#DE2B86;}
	.st10{fill:#672446;}
	.st11{fill:#02AAF1;}
</style>
<g>
	<path class="st0" d="M105.1,190.1c-1.1,0-2.3,0-3.5,0c-17.2,0-34.4,0.2-51.6-0.1C27.6,189.5,7.5,172.1,3,150.1
		c-0.8-3.8-1.1-7.5-1.1-11.4c0-16.8,0-33.7,0-50.5c0-0.5,0-1,0-1.4C36.3,121.2,70.7,155.6,105.1,190.1z"/>
	<path class="st1" d="M2.1,77.6c-0.3-0.7-0.2-1.4-0.2-2.1c0-23.9,0-47.8,0-71.7c0-1.6,0.3-2,2-2c24.2,0.1,48.5,0,72.7,0
		c0.3,0,0.6,0,0.8,0c0.3,0.6-0.2,0.8-0.5,1c-5.5,5.5-11,11.1-16.6,16.5c-1.1,1.1-1.2,1.7-0.1,2.8C70.2,32,80,41.9,89.9,51.7
		c3.5,3.5,6.9,7,10.4,10.4c0.8,0.8,1,1.3,0.1,2.2c-12.1,12-24.1,24.1-36.1,36.2c-1.1,1.1-1.6,0.4-2.2-0.3
		C54.9,93.1,47.8,86,40.7,78.9C34.4,72.6,28.1,66.3,21.9,60c-0.9-1-1.4-0.6-2.2,0.2C14,65.9,8.3,71.6,2.5,77.4
		C2.4,77.5,2.3,77.5,2.1,77.6z M12.7,59.9c0.6,0,0.9-0.5,1.2-0.8c2-1.9,3.7-3.9,5.8-5.7c0.9-0.8,1.5-0.7,2.3,0.1
		c7,7.1,14.1,14.1,21.1,21.2c6.2,6.2,12.5,12.5,18.7,18.7c0.8,0.9,1.5,1.1,2.4,0.1c3.5-3.6,7.2-7.1,10.7-10.6
		c3.7-3.7,7.5-7.5,11.2-11.2c2.4-2.4,4.7-4.9,7.2-7.2c0.9-0.8,0.8-1.5,0-2.3c-2.2-2.2-4.3-4.4-6.5-6.6c-3.6-3.5-7.2-7-10.7-10.5
		C71,39.8,65.8,34.6,60.7,29.3c-2.3-2.4-4.7-4.8-7.1-7c-0.7-0.6-1.2-1.3-0.4-2.2c1-1.1,2-2.1,3.1-3.2c3.2-3.2,6.5-6.3,9.7-9.5
		c-0.1-0.2-0.2-0.3-0.3-0.5c-1.8-0.1-3.7-0.4-5.5-0.4C43.7,6.6,27.1,6.2,10.5,6.7c-4,0.1-3.8-0.9-3.8,3.8c0,16.5,0,33,0,49.5
		c0,1.5,0,3,0,4.5c0,0.8,0.5,1.2,1.1,0.6C9.4,63.4,11.5,62,12.7,59.9L12.7,59.9z M5.5,11.5c-0.1,0-0.2,0-0.3,0c0,17.4,0,34.9,0,52.3
		c0.1,0,0.2,0,0.3,0C5.5,46.3,5.5,28.9,5.5,11.5z"/>
	<path class="st2" d="M114.4,189.8c4.4-4.4,8.8-8.8,13.2-13.2c1.4-1.4,2.8-2.9,4.3-4.3c1-0.9,0.9-1.4,0-2.3
		c-6-5.9-12-11.9-17.9-17.9c-10.5-10.5-21-21-31.5-31.5c-0.9-0.9-0.8-1.3,0.1-2.1c12.1-12,24.1-24.1,36.2-36.2
		c0.7-0.7,1.1-0.7,1.8,0c13.5,13.5,26.9,27,40.4,40.5c3,3,6.1,6,9,9.1c1,1,1.5,0.9,2.4,0c5.5-5.6,11.1-11.1,16.6-16.7
		c0.2-0.2,0.5-0.5,0.8-0.7c0.5,0.4,0.3,0.9,0.3,1.3c0,24.2,0,48.5,0,72.7c0,1,0,1.7-1.4,1.7c-24.2,0-48.5,0-72.7,0
		C115.5,190.1,115,190.2,114.4,189.8z M186.3,129.3c0,17.5,0,34.9,0,52.4c0.3-0.2,0.4-0.4,0.4-0.7c0-16.8,0-33.5,0-50.3
		C186.6,130.2,186.7,129.7,186.3,129.3c0-0.5,0-1.1,0-1.6c0.1-0.8-0.3-1.3-0.9-1.7c-0.7-0.5-1.2,0.2-1.6,0.6
		c-1.3,1.3-2.5,2.6-3.8,3.8c-2.6,2.2-4.8,4.7-7.2,7.2c-0.7,0.7-1.2,1.6-2.4,1.4c-3-2.9-6-5.9-9-8.8c-7.7-7.7-15.4-15.4-23.1-23.2
		c-3.7-3.7-7.3-7.4-10.9-11.1c0-0.2,0-0.5-0.1-0.7c-0.9-1.8-2.7-2.7-4-4c-0.8-0.7-1.2-1.7-2-2.4c-0.8-0.7-1.6-0.5-2.4-0.4
		c-0.7,0.1-0.5,0.8-0.5,1.3l0,0.1c-0.7-0.1-1.2,0.1-1.7,0.7c-1.8,2.2-4.2,3.8-6,6c-1.8,2.1-3.9,4-5.9,5.9
		c-3.6,3.6-7.1,7.2-10.8,10.8c-1.4,1.3-2.7,2.7-4.1,3.9c-1.6,1.4-2.1,3.3-0.2,4.8c1.2,1,2.2,2.2,3.3,3.3c0.5,0.5,0.9,0.8,1.6,0.7
		c1.1,1.1,2.3,2.1,3.4,3.2c8.5,8.4,16.9,16.9,25.4,25.3c4,4,7.8,8,11.8,12c0,1.8,1.6,2.9,2.5,3.7c1.5,1.2,0.9,1.8,0.1,2.7
		c-2.4,2.5-5.2,4.5-7.3,7.3c-1.5,1.9-3.8,3.1-4.9,5.3c0.6,0.6,1.7-0.2,1.9,0.9c-1.1,0-2.2,0-3.3,0c0,0.1,0,0.3-0.1,0.4
		c0.4,0.2,0.8,0.4,1.3,0.6c0.2,1.5,1.7,1.4,2.7,1.7c1.1,0.3,2.3,0.1,3.4,0.1c15.3,0,30.6,0,45.9,0c0.4,0,0.8,0,1.2,0
		c0.4,0,0.8-0.1,0.9-0.6c0.1-0.6-0.4-0.8-0.9-0.8c-0.5,0-0.9,0-1.4,0c-15.9,0-31.8,0-47.7,0c0.3-1.1,1.2-0.7,1.9-0.7
		c15.8,0,31.5,0,47.3,0c0.6,0,1.6,0.5,1.9-0.7c1.2,0,2.3,0,3.5,0c0.7,0,1.1-0.2,1-1c0.2-0.2,0.3-0.3,0.5-0.5c0.5-0.6,0.3-1.3,0.3-2
		c0-17.2,0-34.4,0-51.7C185.6,130.5,185.1,129.6,186.3,129.3z M189,157c0-8.8,0-17.6,0-26.4c0-0.5,0.2-1.2-0.5-1.3
		c-0.8,0-0.5,0.8-0.5,1.2c0,0.2,0,0.3,0,0.5c0,17.3,0,34.6,0,51.8c0,0.3,0,0.7,0,1c0,0.4,0.1,0.7,0.6,0.7c0.4,0,0.4-0.3,0.4-0.6
		c0-0.5,0-0.9,0-1.4C189,174.1,189,165.6,189,157z"/>
	<path class="st3" d="M86.9,1.9c0.7,0,1.7,0,2.7,0c16.4,0,32.9,0,49.3,0c22.8,0,41.9,13.9,49,35.5c1.4,4.3,2.2,8.7,2.2,13.1
		c0.1,18.1,0.1,36.2,0.1,54.3c0,0.2,0,0.3,0,0.2C155.7,70.8,121.3,36.3,86.9,1.9z M98.7,7.8c-0.1,0.9,0.5,1.5,1.1,2
		c2.9,2.5,5.2,5.7,8.1,8.2c2.9,2.4,5.2,5.4,8,7.9c7.1,6.6,13.6,13.9,20.8,20.4c2.8,2.5,5.4,5.4,7.9,8.3c1.2,1.4,2.8,2.4,4,3.8
		c4.1,4.7,9.2,8.5,12.9,13.6c3.1,1.3,4.7,4.2,6.9,6.4c1.3,1.3,2.7,2.7,4,4c2.4,2.2,4.6,4.5,6.9,6.8c0.6,0.6,1.1,1.2,2.1,1
		c1,1.1,1.9,2.4,3.2,3.3c0.7-0.8,0.8-1.8,0.8-2.8c0-6,0.1-11.9,0-17.9c-0.2-10.2,0.8-20.5-1.3-30.7c-1-4.9-3.1-9.4-5.4-13.8
		c-1.1-2-2.5-3.8-4-5.5c-2.8-3.2-5.9-6-9.3-8.4c0-0.7,0.1-1.3,0.7-2c-1.2-0.1-2.5,0.2-3-0.3c-1.7-1.5-3.8-1.9-5.7-2.7
		c-1.7-0.7-3.5-1.5-5.5-1.2c-0.1,0-0.2,0-0.3-0.1c-0.1-0.2-0.1-0.4-0.2-0.5c-2.5-0.6-5-1.5-7.6-1.5c-13.4-0.1-26.8,0-40.2,0
		c-0.6,0-1.4,0.1-1.9-0.2c-1.3-0.8-2.3,0.3-3.4,0.4C97.8,6.6,98,7.5,98.7,7.8z"/>
	<path class="st4" d="M12.7,59.9c-1.2,2.1-3.3,3.5-4.9,5.2c-0.6,0.6-1,0.2-1.1-0.6c0-1.5,0-3,0-4.5c0-16.5,0-33,0-49.5
		c0-4.7-0.2-3.7,3.8-3.8c16.6-0.5,33.2-0.1,49.8-0.2c1.8,0,3.7,0.2,5.5,0.4c0.1,0.2,0.2,0.3,0.3,0.5c-3.2,3.2-6.5,6.3-9.7,9.5
		c-1.1,1-2.1,2.1-3.1,3.2c-0.8,0.9-0.3,1.6,0.4,2.2c2.4,2.3,4.8,4.6,7.1,7C65.8,34.6,71,39.8,76.2,45c3.5,3.5,7.2,7,10.7,10.5
		c2.2,2.2,4.3,4.4,6.5,6.6c0.8,0.8,0.8,1.5,0,2.3c-2.4,2.4-4.8,4.8-7.2,7.2c-3.7,3.7-7.4,7.5-11.2,11.2c-3.6,3.6-7.2,7.1-10.7,10.6
		c-1,1-1.6,0.7-2.4-0.1c-6.2-6.3-12.5-12.5-18.7-18.7c-7-7-14.1-14.1-21.1-21.2c-0.8-0.8-1.4-0.9-2.3-0.1c-2.1,1.8-3.8,3.8-5.8,5.7
		C13.6,59.4,13.3,59.9,12.7,59.9c-0.5-1.6,1.3-1.5,1.8-2.4c1.1-2.2,3-3.6,4.9-5.1c0.7-0.5,1.4-1.2,2.7-0.3c2.6,1.9,4.5,4.5,6.9,6.6
		c2,1.7,3.5,4.1,5.6,5.7c2,1.6,3.5,3.6,5.3,5.3c1,1,2.7,1.3,3.2,2.7c0.3,1,0.8,1.6,1.5,2.2c1.5,1.3,3.2,2.3,4.2,4.1
		c0.6,1.1,1.8,2,2.8,2.9c0.5,0.5,1.5,0.1,1.8,1.1c0.6,2.2,2.6,3.4,4.2,4.5c2,1.4,2.7,3.8,4.9,5.1c0.7,0.4,0.8,0.3,1.2,0
		c1-0.6,1.5-2.1,2.1-2.5c1.9-1,3-2.6,4.5-3.9c1.5-1.3,2.5-3.3,4.5-4.2c0.2-0.1,0.2-0.6,0.4-0.7c1.3-1.1,1.7-3.1,3.2-3.9
		c1.9-0.9,3.2-2.3,4.3-4.1c0.4-0.7,0.9-1.2,1.6-1.7c1.6-1,3-2.3,4-3.8c0.6-0.9,0.8-1.6,2-1.7c1.7-0.2,1.7-2,2.6-3
		c0.6-0.6-0.8-0.2-0.9-0.8c-0.2-1.2-0.9-1.3-1.8-0.8c-0.1-1.8-2-2.2-2.6-3.7c-0.4-0.9-0.8-2.6-2.7-1.7c-0.2,0.1-1.8,0-1.8-1
		c0.1-1.5-1.1-3.3-2.5-3.6c-0.8-0.2-2.1-0.1-2-1.2c0.2-1.9-1.2-2.6-2.3-3.3c-1.1-0.6-1.7-1.3-2.3-2.4c-1-1.9-2.7-2.8-4.5-2.5
		c0.2-1.9-0.1-3.6-1.9-4.4c-1.4-0.6-2.1-2.1-3.7-2.4c-0.1,0-0.3-0.3-0.3-0.3c1-1.5-0.3-1.3-1.1-1.6c-0.6-0.2-1.1-0.6-1.4-1.4
		c-0.3-0.9-0.8-1.9-1.5-2.4c-1.7-1.2-3.2-2.6-4.7-4c-0.7-0.7-0.7-1.9-1.7-2.3c-1.8-0.7-1.7-2.4-0.9-3.4c1.1-1.4,1.9-3.1,3.4-4.1
		c3-2,4.8-5.2,7.7-7.3c0.3-0.2,0.6-0.7,0.3-1c-0.3-0.4-0.8-0.3-1.2,0c-0.6,0.5-1.2,0.5-1.7,0c-0.5-0.4-1.1-0.3-1.7-0.3
		c-16.4,0-32.7,0-49.1,0c-2.3,0-3,0.7-3,3c0,15.6,0,31.2,0,46.9c0,1.9-0.4,4.1,1.3,5.7c-0.3,0-0.6,0-0.9,0c-0.4,0.1-0.5,0.4-0.5,0.8
		c0,0.1,0.2,0.4,0.3,0.4c0.2-0.1,0.5-0.2,0.7-0.4c0.2-0.2,0.3-0.5,0.4-0.7c0.7,0.1,1.3-0.1,1.6-0.8C10.6,60.6,11.6,60.1,12.7,59.9z"
		/>
	<ellipse class="st2" cx="5.4" cy="37.6" rx="0.2" ry="37"/>
	<path class="st5" d="M127.2,95.9c3.6,3.7,7.3,7.4,10.9,11.1c7.7,7.7,15.4,15.5,23.1,23.2c3,3,6,5.9,9,8.8c0.4,1,1,0.9,1.7,0.2
		c0.3-0.3,0.6-0.6,0.9-1c3.1-1,4.9-3.7,7.1-5.8c0.5-0.5,0.9-1.5,1.7-0.9c0.6,0.5,0.4,1.3-0.2,2c-0.3,0.3-1,0.6-0.6,1.2
		c0.6,0.7,0.3,1.6,0.3,2.3c0,14.2,0,28.4,0,42.5c0,0.8-0.7,2.2,0.7,2.2c1.2,0,0.6-1.4,0.6-2.1c0-15,0-30.1,0-45.1c0-1-0.1-2,1.1-2.4
		c0.5,0.6,0.2,1.2,0.2,1.9c0,15.7,0,31.5,0,47.2c0,1.4,0,2.5-1.9,2.1c-0.4-0.1-0.8,0.1-1,0.6c-0.1,0.4-0.7,0.6-0.8,0.4
		c-1-1.4-2.1-0.2-3.1-0.2c-4-0.1-8-0.1-12-0.1c-10.3,0-20.6,0-30.9,0c-0.6,0-1.3,0.3-1.7-0.4c-0.7-1.4-1.4-1.4-2.2,0
		c-0.4,0.7-1.3,1.1-1.8,0.8c-0.6-0.4,0.2-0.9,0.4-1.4c0.1-0.3,0.1-0.7,0.1-1c0.5-0.6,1-1.1,1.5-1.7c2.7-2.7,5.5-5.4,8.2-8.2
		c0.4-0.4,1.2-0.8,0.4-1.6c-1.5-1.4-2.7-2.9-4.3-4.2c-3.9-4-7.8-8-11.8-12c-8.4-8.5-16.9-16.9-25.4-25.3c-1.1-1.1-2.2-2.1-3.4-3.2
		c-1.3-1.8-3-3.2-4.5-4.7c-0.9-1-1-1.9-0.1-2.9c2-2.1,4.2-4.1,6.2-6.2c2.4-2.6,5.3-4.9,7.7-7.5c4.1-4.3,8.3-8.4,12.5-12.6
		c0.7-0.7,1.7-1.1,1.9-2.2c0,0,0-0.1,0-0.1c1.4-0.7,2.3-0.4,3.3,0.9C123.1,92.6,125.1,94.3,127.2,95.9z M178.7,136.3
		c-0.2,0-0.6,0-0.5,0.3c0.1,0.3,0.4,0.6,0.7,0.9c0.2,0.1,0.4-0.1,0.4-0.3C179.3,136.6,179.2,136.3,178.7,136.3z M134.7,183
		c-0.1,0-0.2-0.1-0.3-0.1c-0.1,0-0.1,0.2-0.1,0.3c0.1,0,0.2,0.1,0.3,0.1C134.7,183.3,134.7,183.1,134.7,183z"/>
	<path class="st6" d="M129.3,182c0,0.3,0,0.7-0.1,1c-0.2,0.5-1,1.1-0.4,1.4c0.5,0.3,1.4-0.2,1.8-0.8c0.8-1.4,1.5-1.3,2.2,0
		c0.4,0.8,1.1,0.4,1.7,0.4c10.3,0,20.6,0,30.9,0c4,0,8-0.1,12,0.1c1,0,2.2-1.2,3.1,0.2c0.1,0.2,0.7,0,0.8-0.4c0.2-0.5,0.5-0.6,1-0.6
		c1.9,0.3,1.9-0.8,1.9-2.1c0-15.7,0-31.5,0-47.2c0-0.6,0.2-1.3-0.2-1.9c-1.3,0.4-1.1,1.4-1.1,2.4c0,15,0,30.1,0,45.1
		c0,0.7,0.5,2.1-0.6,2.1c-1.4,0-0.7-1.5-0.7-2.2c0-14.2,0-28.4,0-42.5c0-0.8,0.2-1.6-0.3-2.3c-0.5-0.6,0.3-0.9,0.6-1.2
		c0.6-0.7,0.8-1.5,0.2-2c-0.8-0.6-1.2,0.4-1.7,0.9c-2.2,2.1-4,4.8-7.1,5.8c4-3.9,8-7.8,12.2-11.8c0,0.7,0,1.2,0,1.8
		c0,17.9,0,35.8,0,53.8c0,0.9,0.1,1.8,0.1,2.8c-0.2,0.2-0.3,0.3-0.5,0.5c-0.3,0-0.6-0.1-0.9-0.1c-18.3,0-36.7,0-55,0
		c-0.8,0-1.7,0.2-2.6-0.2C127.3,183.8,128.2,182.8,129.3,182z M184.2,130.2c0-0.5-0.1-0.9-0.8-0.9c-0.4,0-0.6,0.3-0.6,0.7
		c0,0.6,0.4,0.8,0.9,0.9C184.2,130.9,184.2,130.5,184.2,130.2z"/>
	<path class="st7" d="M129.3,182c-1.2,0.8-2,1.8-3,3c1,0.4,1.8,0.2,2.6,0.2c18.3,0,36.7,0,55,0c0.3,0,0.6,0,0.9,0.1
		c0.1,0.8-0.3,1-1,1c-1.2,0-2.3,0-3.5,0c-17.7,0-35.4,0-53.1,0c-0.2-1.1-1.3-0.4-1.9-0.9c1.1-2.2,3.5-3.4,4.9-5.3
		c2.1-2.8,5-4.8,7.3-7.3c0.8-0.8,1.4-1.4-0.1-2.7c-1-0.8-2.5-1.9-2.5-3.7c1.6,1.2,2.9,2.8,4.3,4.2c0.9,0.8,0.1,1.2-0.4,1.6
		c-2.7,2.7-5.5,5.4-8.2,8.2C130.3,180.9,129.8,181.4,129.3,182z"/>
	<path class="st0" d="M129.3,187.6c15.9,0,31.8,0,47.7,0c0.5,0,0.9,0,1.4,0c0.5,0,0.9,0.1,0.9,0.8c0,0.5-0.5,0.6-0.9,0.6
		c-0.4,0-0.8,0-1.2,0c-15.3,0-30.6,0-45.9,0c-1.1,0-2.4,0.2-3.4-0.1c-1-0.3-2.4-0.1-2.7-1.7C126.6,187.2,127.9,187.8,129.3,187.6z"
		/>
	<path class="st7" d="M118.2,89.7c-0.2,1.1-1.2,1.5-1.9,2.2c-4.2,4.2-8.4,8.3-12.5,12.6c-2.5,2.6-5.3,4.9-7.7,7.5
		c-2,2.1-4.2,4.1-6.2,6.2c-0.9,1-0.9,1.9,0.1,2.9c1.5,1.6,3.2,2.9,4.5,4.7c-0.7,0.1-1.2-0.3-1.6-0.8c-1.1-1.1-2.1-2.3-3.3-3.3
		c-1.9-1.5-1.5-3.5,0.2-4.8c1.5-1.2,2.8-2.6,4.1-3.9c3.6-3.6,7.2-7.2,10.8-10.8c2-2,4.1-3.8,5.9-5.9c1.8-2.2,4.2-3.8,6-6
		C116.9,89.8,117.5,89.6,118.2,89.7z"/>
	<path class="st3" d="M189,157c0,8.6,0,17.1,0,25.7c0,0.5,0,0.9,0,1.4c0,0.3-0.1,0.6-0.4,0.6c-0.5,0-0.6-0.3-0.6-0.7
		c0-0.3,0-0.7,0-1c0-17.3,0-34.6,0-51.8c0-0.2,0-0.3,0-0.5c0.1-0.5-0.2-1.2,0.5-1.2c0.7,0,0.5,0.8,0.5,1.3
		C189,139.5,189,148.2,189,157z"/>
	<path class="st1" d="M129.3,187.6c-1.4,0.2-2.8-0.4-4.2-0.3c-0.4-0.2-0.8-0.4-1.3-0.6c0-0.1,0-0.3,0.1-0.4c1.1,0,2.2,0,3.3,0
		c17.7,0,35.4,0,53.1,0c-0.3,1.1-1.2,0.7-1.9,0.7c-15.8,0-31.5,0-47.3,0C130.5,186.9,129.6,186.5,129.3,187.6z"/>
	<path class="st7" d="M185.3,184.8c0-0.9-0.1-1.8-0.1-2.8c0-17.9,0-35.8,0-53.8c0-0.6,0-1.1,0-1.8c-4.2,4-8.2,7.9-12.2,11.8
		c-0.3,0.3-0.6,0.6-0.9,1c-0.7,0.7-1.3,0.7-1.7-0.2c1.2,0.2,1.7-0.7,2.4-1.4c2.3-2.5,4.6-5,7.2-7.2c1.3-1.2,2.5-2.5,3.8-3.8
		c0.4-0.4,0.9-1.1,1.6-0.6c0.6,0.4,1,0.9,0.9,1.7c-0.1,0.5,0,1,0,1.6l0,0c-1.1,0.3-0.7,1.2-0.7,1.9c0,17.2,0,34.4,0,51.7
		C185.6,183.5,185.8,184.2,185.3,184.8z"/>
	<path class="st1" d="M186.3,129.3c0.5,0.4,0.4,0.9,0.4,1.4c0,16.8,0,33.5,0,50.3c0,0.2,0,0.4-0.4,0.7
		C186.3,164.2,186.3,146.7,186.3,129.3C186.3,129.3,186.3,129.3,186.3,129.3z"/>
	<path class="st7" d="M127.2,95.9c-2.1-1.6-4.1-3.3-5.7-5.3c-1-1.3-2-1.6-3.3-0.9c0.1-0.5-0.2-1.2,0.5-1.3c0.8-0.1,1.6-0.3,2.4,0.4
		c0.8,0.7,1.2,1.7,2,2.4c1.3,1.3,3.1,2.2,4,4C127.2,95.4,127.2,95.7,127.2,95.9z"/>
	<path class="st8" d="M151.6,8.4c0.1,0.1,0.2,0.1,0.3,0.1c0.1,0.2,0.2,0.5,0.4,0.5c1.8,0.1,3.3,1,4.9,1.6c0,0.6-0.1,1.3,0.7,1.3
		c1,0,1.5,0.6,2.2,1.2c0.4,0.4,0.7,0.9,1.4,0.9c2.1,0.2,3.5,1.7,5.1,2.9c0.5,0.4,1.3,0.4,1.6,1c0.8,2.1,3.2,2.7,4.4,4.6
		c0.6,1,1.2,1.6,1,2.9c-0.3,2.2-0.1,2.3,2.2,2.6c1.2,0.2,2.6,0.6,2.8,1.9c0.2,1.5,0.6,2.7,1.4,4c0.5,0.7-0.5,1.1-0.5,1.7
		c-0.1,1.3,1.4-0.4,1.3,0.7c-0.1,0.9,0.5,1.5,0.7,2.3c0.1,0.6,0.5,1.5-0.5,1.9c-1.2,0.5-0.9,0.9-0.1,1.8c1,1.1,3.1,2.1,1.5,4.3
		c-0.4,0.6,0.2,1.9-1.3,1.8c0,0-0.2,0.5-0.2,0.8c0,2.6-0.4,5.2-0.4,7.8c0.1,8.5,0,17,0,25.5c0,1.1,0.1,2.2,0.3,3.3
		c0.2,0.7-0.3,1.2-0.9,1.2c-0.4,0-1.1-0.4-0.8-1c0.4-0.9-0.1-0.9-0.7-0.9c-0.5,0-1,0.1-1.6,0.1c-0.1,0-0.1,0-0.2-0.1
		c0-0.9,0.1-1.7,0-2.6c-0.1-0.8-0.4-1.7-1.5-1.2c-1.2,0.6-1.3,0-1.3-0.9c0-0.6,0.2-1.6-0.8-1.5c-1.6,0.2-2.5-0.8-3.3-1.8
		c-0.7-1-1.4-1.9-2.6-2.7c-2.2-1.5-3.9-3.7-5.8-5.6c-0.5-0.5-0.9-0.9-0.4-1.8c0.5-0.8-0.1-1.6-0.8-1.3c-1.1,0.6-2-0.2-3-0.1l0,0
		c-0.1-1.7-1.1-2.7-2.8-2.8c-1-0.2-0.8-1.4-1.6-1.9c-1.8-1.1-3.1-2.8-4.5-4.3c-2.3-2.3-4.6-4.7-6.9-7c-2-2-4.2-3.9-6.1-6
		c-2-2.3-4.3-4.3-6.4-6.4c-1.7-1.7-3.1-3.6-5-5c-0.1-1.7-1.1-2.7-2.8-2.8l0,0c-0.1-1.9-3.6-5.4-5.5-5.6c0,0,0,0,0,0
		c0.1-0.7,0.1-1.4-0.5-1.9c-3.4-2.8-6.2-6.2-9.5-9.2c-0.4-0.3-1.1-0.7-0.8-1.2c0.3-0.5,0.9-0.9,1.6-0.9c0.4,0,0.8,0,1.2,0
		c10.6,0,21.2,0,31.7,0c0.6,0,1.3,0.3,1.8-0.3c-1-0.9-2.2-1-3.4-1c-11.3,0-22.5,0-33.8,0.1c-1.7,0-2.8-0.6-3.5-2.1
		c0.3,0,0.7-0.1,1-0.1c12.6,0,25.3,0,37.9,0c1.5,0,3,0,4.5,0.2C146.3,7.4,148.8,8.6,151.6,8.4z"/>
	<path class="st9" d="M176.8,84.9c0.5,0,1-0.1,1.6-0.1c0.5,0,1.1,0,0.7,0.9c-0.3,0.7,0.3,1,0.8,1c0.7,0,1.1-0.5,0.9-1.2
		c-0.2-1.1-0.3-2.2-0.3-3.3c0-8.5,0.1-17,0-25.5c0-2.6,0.4-5.2,0.4-7.8c0-0.3,0.1-0.8,0.2-0.8c1.5,0.1,0.9-1.2,1.3-1.8
		c1.6-2.3-0.5-3.2-1.5-4.3c-0.8-0.9-1.1-1.3,0.1-1.8c1-0.4,0.7-1.3,0.5-1.9c-0.1-0.8-0.7-1.4-0.7-2.3c0.1-1.1-1.4,0.6-1.3-0.7
		c0.1-0.6,1-1,0.5-1.7c-0.8-1.2-1.2-2.5-1.4-4c-0.2-1.3-1.6-1.7-2.8-1.9c-2.3-0.3-2.5-0.4-2.2-2.6c0.2-1.3-0.4-1.9-1-2.9
		c-1.2-1.9-3.5-2.5-4.4-4.6c-0.2-0.6-1-0.6-1.6-1c-1.6-1.1-3-2.7-5.1-2.9c-0.7-0.1-1-0.5-1.4-0.9c-0.6-0.6-1.1-1.3-2.2-1.2
		c-0.9,0-0.7-0.7-0.7-1.3c0.4,0,0.8,0.1,1.1,0.3c2.5,1,4.7,2.6,7.2,3.9c3.4,2.4,6.5,5.2,9.3,8.4c1.5,1.7,3,3.5,4,5.5
		c2.3,4.4,4.5,8.8,5.4,13.8c2,10.2,1.1,20.4,1.3,30.7c0.1,5.9,0,11.9,0,17.9c0,1-0.1,1.9-0.8,2.8c-1.3-0.9-2.2-2.1-3.2-3.3
		c-0.1-0.7-0.8-1-1.3-1.5C179.1,87.5,177.5,86.6,176.8,84.9z"/>
	<path class="st10" d="M176.8,84.9c0.7,1.7,2.3,2.6,3.4,3.9c0.4,0.5,1.1,0.8,1.3,1.5c-0.9,0.2-1.5-0.4-2.1-1
		c-2.3-2.3-4.5-4.6-6.9-6.8c-1.4-1.3-2.7-2.7-4-4c-2.2-2.2-3.8-5.1-6.9-6.4c-3.7-5.1-8.8-8.9-12.9-13.6c-1.2-1.4-2.8-2.4-4-3.8
		c-2.5-2.9-5.1-5.8-7.9-8.3c-7.3-6.5-13.7-13.8-20.8-20.4c-2.7-2.6-5.1-5.5-8-7.9c-3-2.5-5.2-5.7-8.1-8.2c-0.6-0.5-1.2-1.1-1.1-2
		c0,0,0.1-0.1,0.1-0.1c0.1,0,0.2,0.1,0.3,0.1c5.1,5.1,10.2,10.3,15.2,15.4c0.3,0.3,0.6,0.6,1,0.5c0,0,0,0,0,0c1.6,2.1,3.4,4,5.5,5.6
		c0,0,0,0,0,0c0.6,1.2,1.6,2.1,2.8,2.8c1.9,1.4,3.4,3.3,5,5c2.1,2.1,4.4,4.1,6.4,6.4c1.9,2.1,4.1,3.9,6.1,6c2.3,2.3,4.6,4.7,6.9,7
		c1.5,1.5,2.7,3.2,4.5,4.3c0.8,0.5,0.6,1.7,1.6,1.9c0.7,1.1,1.6,2.1,2.8,2.8c0,0,0,0,0,0c0,0.5,0.4,0.7,0.6,1
		c5.1,5.1,10.1,10.1,15.2,15.2c1.2,1.1,2,2.7,3.6,3.3C176.6,84.9,176.7,84.9,176.8,84.9z"/>
	<path class="st10" d="M151.6,8.4c-2.7,0.2-5.3-0.9-7.9-1.2c-1.5-0.1-3-0.2-4.5-0.2c-12.6,0-25.3,0-37.9,0c-0.3,0-0.7,0-1,0.1
		c-0.5,0.1-1.2-0.4-1.3,0.6c0,0-0.1,0.1-0.1,0.1c-0.7-0.3-0.9-1.2-0.3-1.2c1.1-0.1,2.1-1.2,3.4-0.4c0.5,0.3,1.2,0.2,1.9,0.2
		c13.4,0,26.8,0,40.2,0c2.6,0,5.1,0.9,7.6,1.5C151.5,8,151.5,8.2,151.6,8.4z"/>
	<path class="st10" d="M165.4,14.7c-2.4-1.2-4.6-2.8-7.2-3.9c-0.4-0.2-0.7-0.3-1.1-0.3c-1.6-0.6-3.1-1.5-4.9-1.6
		c-0.1,0-0.3-0.3-0.4-0.5c2-0.3,3.7,0.5,5.5,1.2c2,0.8,4.1,1.2,5.7,2.7c0.6,0.5,1.8,0.2,3,0.3C165.5,13.4,165.4,14,165.4,14.7z"/>
	<path class="st11" d="M8.5,62.6c-1.7-1.6-1.3-3.8-1.3-5.7c-0.1-15.6,0-31.2,0-46.9c0-2.2,0.7-3,3-3c16.4,0,32.7,0,49.1,0
		c0.6,0,1.1-0.1,1.7,0.3c0.5,0.5,1.2,0.5,1.7,0c0.4-0.3,0.9-0.5,1.2,0c0.3,0.4,0,0.8-0.3,1c-2.9,2.1-4.7,5.3-7.7,7.3
		c-1.5,1-2.3,2.7-3.4,4.1c-0.7,1-0.9,2.6,0.9,3.4c1,0.4,1,1.6,1.7,2.3c1.5,1.4,3,2.8,4.7,4c0.7,0.5,1.2,1.5,1.5,2.4
		c0.3,0.8,0.8,1.2,1.4,1.4c0.8,0.3,2.1,0.1,1.1,1.6c0,0,0.2,0.3,0.3,0.3c1.6,0.3,2.3,1.8,3.7,2.4c1.8,0.8,2.1,2.6,1.9,4.4
		c1.8-0.4,3.5,0.6,4.5,2.5c0.5,1.1,1.2,1.8,2.3,2.4c1.1,0.6,2.5,1.4,2.3,3.3c-0.1,1.1,1.2,1,2,1.2c1.4,0.3,2.5,2.1,2.5,3.6
		c0,1,1.5,1.1,1.8,1c1.9-0.8,2.3,0.8,2.7,1.7c0.6,1.5,2.5,1.9,2.6,3.7c0.9-0.4,1.6-0.3,1.8,0.8c0.1,0.5,1.5,0.2,0.9,0.8
		c-0.9,1-0.9,2.8-2.6,3c-1.2,0.1-1.4,0.8-2,1.7c-1,1.5-2.4,2.8-4,3.8c-0.7,0.5-1.1,0.9-1.6,1.7c-1,1.7-2.4,3.1-4.3,4.1
		c-1.5,0.8-1.9,2.7-3.2,3.9c-0.2,0.2-0.2,0.7-0.4,0.7c-2,0.9-2.9,2.8-4.5,4.2c-1.5,1.3-2.7,2.9-4.5,3.9c-0.6,0.3-1.1,1.8-2.1,2.5
		c-0.4,0.3-0.5,0.4-1.2,0c-2.2-1.2-2.9-3.7-4.9-5.1C56,86.3,54,85,53.4,82.9c-0.3-1-1.3-0.6-1.8-1.1c-1-0.9-2.2-1.8-2.8-2.9
		c-1-1.8-2.7-2.8-4.2-4.1c-0.7-0.6-1.2-1.2-1.5-2.2c-0.4-1.4-2.1-1.7-3.2-2.7c-1.8-1.8-3.3-3.8-5.3-5.3c-2.1-1.6-3.6-4-5.6-5.7
		c-2.4-2.1-4.4-4.7-6.9-6.6c-1.3-0.9-2-0.3-2.7,0.3c-1.9,1.4-3.8,2.9-4.9,5.1c-0.5,0.9-2.3,0.8-1.8,2.4c0,0,0,0,0,0
		c-1.2,0.2-2.1,0.7-2.6,1.9C9.8,62.6,9.2,62.7,8.5,62.6L8.5,62.6z"/>
	<path class="st11" d="M8.5,62.6c-0.1,0.2-0.2,0.5-0.4,0.7c-0.2,0.2-0.4,0.3-0.7,0.4c0,0-0.2-0.2-0.3-0.4c-0.1-0.4,0-0.7,0.5-0.8
		C7.9,62.6,8.2,62.6,8.5,62.6C8.5,62.6,8.5,62.6,8.5,62.6z"/>
	<path class="st6" d="M178.7,136.3c0.5,0,0.7,0.3,0.6,0.8c0,0.3-0.2,0.5-0.4,0.3c-0.3-0.2-0.6-0.5-0.7-0.9
		C178.1,136.3,178.4,136.3,178.7,136.3z"/>
	<path class="st6" d="M134.7,183c0,0.1-0.1,0.2-0.1,0.3c-0.1,0-0.2-0.1-0.3-0.1c0-0.1,0.1-0.2,0.1-0.3
		C134.5,182.9,134.6,183,134.7,183z"/>
	<path class="st5" d="M184.2,130.2c0,0.3,0,0.8-0.5,0.7c-0.5-0.1-0.9-0.3-0.9-0.9c0-0.4,0.2-0.6,0.6-0.7
		C184,129.3,184.2,129.7,184.2,130.2z"/>
	<path class="st9" d="M98.8,7.7c0.1-1,0.8-0.5,1.3-0.6c0.7,1.5,1.8,2.1,3.5,2.1c11.3-0.1,22.5,0,33.8-0.1c1.2,0,2.4,0.1,3.4,1
		c-0.5,0.7-1.2,0.3-1.8,0.3c-10.6,0-21.2,0-31.7,0c-0.4,0-0.8,0-1.2,0c-0.7,0-1.3,0.4-1.6,0.9c-0.2,0.5,0.5,0.9,0.8,1.2
		c3.2,3,6,6.4,9.5,9.2c0.6,0.5,0.6,1.2,0.5,1.9c-0.5,0-0.7-0.2-1-0.5c-5.1-5.1-10.1-10.3-15.2-15.4C99.1,7.7,98.9,7.7,98.8,7.7z"/>
	<path class="st9" d="M176.5,84.9c-1.6-0.7-2.4-2.2-3.6-3.3c-5.1-5-10.2-10.1-15.2-15.2c-0.3-0.3-0.7-0.5-0.6-1c1-0.1,1.9,0.6,3,0.1
		c0.7-0.3,1.3,0.5,0.8,1.3c-0.6,0.8-0.1,1.3,0.4,1.8c1.9,1.9,3.6,4.1,5.8,5.6c1.1,0.8,1.8,1.6,2.6,2.7c0.8,1,1.7,2,3.3,1.8
		c1.1-0.1,0.8,0.9,0.8,1.5c0,0.9,0.1,1.5,1.3,0.9c1-0.5,1.4,0.5,1.5,1.2C176.6,83.1,176.5,84,176.5,84.9z M172.9,79.3
		c-0.1,0.1-0.3,0.1-0.3,0.2c-0.1,0.2,0,0.3,0.2,0.3c0.1,0,0.3-0.1,0.4-0.2C173.3,79.4,173.1,79.4,172.9,79.3z"/>
	<path class="st9" d="M120.9,29.3c-2.1-1.6-3.9-3.4-5.5-5.6C117.3,23.9,120.8,27.4,120.9,29.3z"/>
	<path class="st9" d="M123.7,32.1c-1.1-0.7-2.1-1.6-2.8-2.8C122.6,29.4,123.6,30.4,123.7,32.1z"/>
	<path class="st9" d="M157.1,65.4c-1.2-0.7-2.1-1.6-2.8-2.8C155.9,62.7,157,63.7,157.1,65.4z"/>
	<path class="st8" d="M172.9,79.3c0.2,0.1,0.4,0.1,0.3,0.3c-0.1,0.1-0.2,0.2-0.4,0.2c-0.2,0-0.3-0.1-0.2-0.3
		C172.6,79.4,172.8,79.4,172.9,79.3z"/>
</g>
</svg>
